<svg id="Group_112" data-name="Group 112" xmlns="http://www.w3.org/2000/svg" width="20" height="20" viewBox="0 0 20 20">
  <rect id="Rectangle_20" data-name="Rectangle 20" width="20" height="20" fill="none"/>
  <g id="Group_111" data-name="Group 111" transform="translate(0.792 0.05)">
    <g id="Group_110" data-name="Group 110" transform="translate(0)">
      <path id="Path_205" data-name="Path 205" d="M-28.591,411.274q3.489,0,6.977,0a4.766,4.766,0,0,1,3.641-1.689,4.76,4.76,0,0,1,.875.081q0-3.723,0-7.446a2.258,2.258,0,0,0-2.258-2.258c-.268,0-.537,0-.827,0,0-.362.007-.707,0-1.052a.819.819,0,0,0-.767-.8.812.812,0,0,0-.86.692,2.769,2.769,0,0,0-.019.4c0,.243,0,.487,0,.743h-2.257c0-.335.007-.661,0-.988a.826.826,0,0,0-1.081-.811.817.817,0,0,0-.565.772c-.006.339,0,.679,0,1.028h-2.27c0-.358.011-.71,0-1.061a.812.812,0,0,0-1.066-.74.8.8,0,0,0-.565.75c-.008.346,0,.691,0,1.062h-.783a2.259,2.259,0,0,0-2.273,1.886,2.742,2.742,0,0,0-.03.5c0,4.372.013,8.744-.009,13.116a2.317,2.317,0,0,0,1.934,2.373.183.183,0,0,1,.051.026h9.538a4.762,4.762,0,0,1-1.531-3.5,4.739,4.739,0,0,1,.221-1.437h-2q-2.034,0-4.067,0a.8.8,0,0,1-.779-.5.8.8,0,0,1,.158-.893A.827.827,0,0,1-28.591,411.274Zm-.23-6.554a1.376,1.376,0,0,1,.306-.023q.983,0,1.966,0v0c.694,0,1.388-.007,2.082,0a.8.8,0,0,1,.773.68.815.815,0,0,1-.565.916.652.652,0,0,1-.188.034c-1.407,0-2.814.007-4.221,0a.8.8,0,0,1-.77-.727A.824.824,0,0,1-28.822,404.72Zm.27,3.265h4.067q2.034,0,4.067,0a.791.791,0,0,1,.778.5.78.78,0,0,1-.146.878.881.881,0,0,1-.713.274q-3.518,0-7.036,0c-.341,0-.682,0-1.022,0a.831.831,0,0,1-.887-.837A.827.827,0,0,1-28.552,407.985Z" transform="translate(32.741 -398.108)" fill="#d6d6d6"/>
    </g>
    <path id="Path_206" data-name="Path 206" d="M187.88,643.232a3.648,3.648,0,1,0,2.861,3.562A3.648,3.648,0,0,0,187.88,643.232Zm.622,4.113h-.858v.858a.551.551,0,0,1-1.1,0v-.858h-.858a.551.551,0,0,1,0-1.1h.858v-.858a.551.551,0,0,1,1.1,0v.858h.858a.551.551,0,0,1,0,1.1Z" transform="translate(-172.326 -630.543)" fill="#d6d6d6"/>
  </g>
</svg>
