<svg xmlns="http://www.w3.org/2000/svg" width="42" height="42" viewBox="0 0 42 42">
  <g id="googleBig" transform="translate(-5990 857)">
    <path id="Path_219" data-name="Path 219" d="M21,0A21,21,0,1,1,0,21,21,21,0,0,1,21,0Z" transform="translate(5990 -857)" fill="#e1e1e1"/>
    <g id="Group_248" data-name="Group 248" transform="translate(5848.063 -1193.211)">
      <path id="Path_215" data-name="Path 215" d="M183.427,349.531a7.967,7.967,0,0,1,4.234,1.21l4.283-3.453a13.328,13.328,0,0,0-20.339,4.095l4.252,3.543A8.009,8.009,0,0,1,183.427,349.531Z" transform="translate(-20.164)" fill="#f14336"/>
      <path id="Path_216" data-name="Path 216" d="M184.3,581.9a8.008,8.008,0,0,1-7.5-5.195l-4.259,3.467a13.327,13.327,0,0,0,20.125,4.093l-4.344-3.448A7.969,7.969,0,0,1,184.3,581.9Z" transform="translate(-21.036 -216.359)" fill="#28b446"/>
      <path id="Path_217" data-name="Path 217" d="M155.257,453.7a7.994,7.994,0,0,1,.436-2.611l-4.252-3.543a13.342,13.342,0,0,0,.065,12.431l4.259-3.466A7.987,7.987,0,0,1,155.257,453.7Z" transform="translate(0 -96.162)" fill="#fbbb00"/>
      <path id="Path_218" data-name="Path 218" d="M358.634,500.3H345.811v5.26h7.245a8.032,8.032,0,0,1-3.491,4.155l4.344,3.448a13.338,13.338,0,0,0,4.724-12.863Z" transform="translate(-182.28 -145.251)" fill="#518ef8"/>
    </g>
  </g>
</svg>
