<svg xmlns="http://www.w3.org/2000/svg" width="20" height="20" viewBox="0 0 20 20">
  <g id="Group_108" data-name="Group 108" transform="translate(-88.5 -1387.506)">
    <rect id="Rectangle_19" data-name="Rectangle 19" width="20" height="20" transform="translate(88.5 1387.506)" fill="none"/>
    <path id="Subtraction_1" data-name="Subtraction 1" d="M-491.5,19.012h0c-.067-.093-1.656-2.3-3.249-4.937C-496.232,11.618-498,8.3-498,6.461A6.488,6.488,0,0,1-491.5,0,6.488,6.488,0,0,1-485,6.461c0,1.843-1.767,5.158-3.25,7.614-1.593,2.638-3.183,4.844-3.25,4.937Zm0-15.972a3.435,3.435,0,0,0-3.441,3.421A3.435,3.435,0,0,0-491.5,9.881a3.435,3.435,0,0,0,3.441-3.421A3.435,3.435,0,0,0-491.5,3.04Z" transform="translate(590 1388)" fill="#ff7b38"/>
  </g>
</svg>
