<svg xmlns="http://www.w3.org/2000/svg" width="20" height="20" viewBox="0 0 20 20">
  <g id="Group_122" data-name="Group 122" transform="translate(-344.499 -1389.5)">
    <rect id="Rectangle_23" data-name="Rectangle 23" width="20" height="20" transform="translate(344.499 1389.5)" fill="none"/>
    <g id="Group_121" data-name="Group 121">
      <path id="Path_207" data-name="Path 207" d="M320,360.008c.027-.129.049-.259.082-.387a1.991,1.991,0,0,1,.5-.921c.47-.475.941-.949,1.419-1.414a1.207,1.207,0,0,1,1.393-.344,1.869,1.869,0,0,1,.553.381c.678.661,1.343,1.335,2.01,2.006a1.359,1.359,0,0,1,.487,1.174,1.511,1.511,0,0,1-.489.861c-.393.4-.79.787-1.185,1.181-.2.2-.205.256-.087.521a9.92,9.92,0,0,0,1.876,2.643,12.114,12.114,0,0,0,2.452,2.078c.319.2.661.361.993.54.152.082.264.013.37-.094q.62-.624,1.243-1.246a1.465,1.465,0,0,1,.851-.469,1.214,1.214,0,0,1,.91.263,2.486,2.486,0,0,1,.261.231c.659.656,1.321,1.308,1.97,1.973a2.146,2.146,0,0,1,.413.574,1.069,1.069,0,0,1-.187,1.219c-.522.576-1.066,1.135-1.637,1.662a2.346,2.346,0,0,1-1.857.521,8.762,8.762,0,0,1-3.257-.994,17.23,17.23,0,0,1-4.412-3.1,16.965,16.965,0,0,1-4.166-6.128,7.1,7.1,0,0,1-.481-1.882.34.34,0,0,0-.028-.08Z" transform="translate(25.578 1035.449)" fill="#06919d"/>
      <path id="Path_208" data-name="Path 208" d="M514.306,320c.4.092.8.171,1.2.278a9.959,9.959,0,0,1,4.705,2.837,10.162,10.162,0,0,1,2.454,4.426c.036.134.06.272.09.408l.091.422-1.337.232a8.953,8.953,0,0,0-7.483-7.256L514.2,320Z" transform="translate(-159.423 1070.578)" fill="#06919d"/>
      <path id="Path_209" data-name="Path 209" d="M515.383,402.245l-1.341.229A4.829,4.829,0,0,0,510,398.558l.186-1.333A6.081,6.081,0,0,1,515.383,402.245Z" transform="translate(-155.589 996.944)" fill="#06919d"/>
    </g>
  </g>
</svg>
