<svg xmlns="http://www.w3.org/2000/svg" xmlns:xlink="http://www.w3.org/1999/xlink" width="218.717" height="153.057" viewBox="0 0 218.717 153.057">
  <defs>
    <clipPath id="clip-path">
      <path id="Path_139" data-name="Path 139" d="M507.212,516.493l-21.989-15.517a2.323,2.323,0,0,1-.862-2.089L506.35,514.4A2.323,2.323,0,0,0,507.212,516.493Z" transform="translate(-484.358 -498.887)" fill="#d35050"/>
    </clipPath>
  </defs>
  <g id="Group_204" data-name="Group 204" transform="translate(-106.971 -75.11)" opacity="0.4">
    <path id="Path_36" data-name="Path 36" d="M188.392,354.153c40.722-1.444,70.531,8.448,70.531,8.448s68.927,10.707,66.712,46.763S260.242,466.3,216.389,452.379s-15.428-30.166-65.069-45.292S70.391,358.337,188.392,354.153Z" transform="translate(0 -228.56)" fill="#fcfefb"/>
    <path id="Path_37" data-name="Path 37" d="M364.325,399.307s-73.55-3.657-58.236,9.441,15.928,3.518,25.722,12.949-11.6,21.277,16.84,30.506-2.142,30.083,84.95,0S364.325,399.307,364.325,399.307Z" transform="translate(-161.161 -265.229)" fill="#e0f8fc"/>
    <path id="Path_38" data-name="Path 38" d="M330.856,398.675c-83.284-15.659-14.535,56.546,39.889,32.221C415.645,410.828,343.454,401.044,330.856,398.675Z" transform="translate(-151.423 -263.259)" fill="#c7eef2"/>
    <g id="Group_8" data-name="Group 8" transform="translate(166.667 103.571)">
      <path id="Path_39" data-name="Path 39" d="M445.523,233.806s-24.154,9.779.56,34.187c0,0,11.066.611,2.316-20.414C447.047,244.332,444.308,240.008,445.523,233.806Z" transform="translate(-434.952 -233.806)" fill="#2b4e78"/>
      <path id="Path_40" data-name="Path 40" d="M470.66,267.993a38.208,38.208,0,0,0-3.681-13.387c-3.243-6.286-2.706-13.264,3.122-20.8" transform="translate(-459.529 -233.806)" fill="none" stroke="#09a4d0" stroke-miterlimit="10" stroke-width="1"/>
      <path id="Path_41" data-name="Path 41" d="M494.663,384.277s-1.431-3.1-6.356-4.373" transform="translate(-478.596 -353.313)" fill="none" stroke="#09a4d0" stroke-miterlimit="10" stroke-width="1"/>
      <path id="Path_42" data-name="Path 42" d="M471.846,376.1s.293-3.76,2.538-4.244" transform="translate(-465.131 -346.729)" fill="none" stroke="#09a4d0" stroke-miterlimit="10" stroke-width="1"/>
      <path id="Path_43" data-name="Path 43" d="M472.5,339.211s6.539-1.989,9.509,3.246" transform="translate(-465.664 -319.723)" fill="none" stroke="#09a4d0" stroke-miterlimit="10" stroke-width="1"/>
      <path id="Path_44" data-name="Path 44" d="M451.1,338.2s.005-5.648,3.3-6.062" transform="translate(-448.16 -314.237)" fill="none" stroke="#09a4d0" stroke-miterlimit="10" stroke-width="1"/>
      <path id="Path_45" data-name="Path 45" d="M465.025,300.327s5.667-3.485,7.973.515" transform="translate(-459.551 -287.068)" fill="none" stroke="#09a4d0" stroke-miterlimit="10" stroke-width="1"/>
      <path id="Path_46" data-name="Path 46" d="M434.965,300s2.624-3.006,5.527-2.565" transform="translate(-434.962 -285.817)" fill="none" stroke="#09a4d0" stroke-miterlimit="10" stroke-width="1"/>
      <path id="Path_47" data-name="Path 47" d="M472.019,267.339a2.819,2.819,0,0,1,4.179,1.028" transform="translate(-465.272 -260.793)" fill="none" stroke="#09a4d0" stroke-miterlimit="10" stroke-width="1"/>
      <path id="Path_48" data-name="Path 48" d="M445.181,263.614s3.18-3.354,5.47-2.246" transform="translate(-443.319 -256.168)" fill="none" stroke="#09a4d0" stroke-miterlimit="10" stroke-width="1"/>
    </g>
    <g id="Group_9" data-name="Group 9" transform="translate(218.603 101.777)">
      <path id="Path_49" data-name="Path 49" d="M728.7,223.947s-19.182,7.767.444,27.151c0,0,8.788.485,1.839-16.213C729.907,232.306,727.732,228.873,728.7,223.947Z" transform="translate(-720.302 -223.947)" fill="#2b4e78"/>
      <path id="Path_50" data-name="Path 50" d="M748.661,251.1a30.344,30.344,0,0,0-2.923-10.631c-2.576-4.992-2.149-10.534,2.479-16.519" transform="translate(-739.821 -223.947)" fill="none" stroke="#09a4d0" stroke-miterlimit="10" stroke-width="1"/>
      <path id="Path_51" data-name="Path 51" d="M767.724,343.448s-1.137-2.459-5.048-3.473" transform="translate(-754.964 -318.857)" fill="none" stroke="#09a4d0" stroke-miterlimit="10" stroke-width="1"/>
      <path id="Path_52" data-name="Path 52" d="M749.6,336.953s.233-2.986,2.016-3.37" transform="translate(-744.269 -313.628)" fill="none" stroke="#09a4d0" stroke-miterlimit="10" stroke-width="1"/>
      <path id="Path_53" data-name="Path 53" d="M750.12,307.657s5.193-1.579,7.552,2.578" transform="translate(-744.693 -292.18)" fill="none" stroke="#09a4d0" stroke-miterlimit="10" stroke-width="1"/>
      <path id="Path_54" data-name="Path 54" d="M733.126,306.851s0-4.485,2.624-4.814" transform="translate(-730.792 -287.824)" fill="none" stroke="#09a4d0" stroke-miterlimit="10" stroke-width="1"/>
      <path id="Path_55" data-name="Path 55" d="M744.185,276.776s4.5-2.768,6.332.409" transform="translate(-739.838 -266.246)" fill="none" stroke="#09a4d0" stroke-miterlimit="10" stroke-width="1"/>
      <path id="Path_56" data-name="Path 56" d="M720.312,276.516s2.084-2.387,4.389-2.037" transform="translate(-720.31 -265.253)" fill="none" stroke="#09a4d0" stroke-miterlimit="10" stroke-width="1"/>
      <path id="Path_57" data-name="Path 57" d="M749.739,250.578a2.239,2.239,0,0,1,3.319.816" transform="translate(-744.381 -245.379)" fill="none" stroke="#09a4d0" stroke-miterlimit="10" stroke-width="1"/>
      <path id="Path_58" data-name="Path 58" d="M728.426,247.62s2.526-2.664,4.344-1.784" transform="translate(-726.947 -241.707)" fill="none" stroke="#09a4d0" stroke-miterlimit="10" stroke-width="1"/>
    </g>
    <path id="Path_59" data-name="Path 59" d="M420.432,368.161a7.919,7.919,0,0,1-4.966-2.848,8.443,8.443,0,0,0-1.34,3.1,28.354,28.354,0,0,0-.7,3.546c.452.408.834.737.963.854a16.975,16.975,0,0,0,5.041,3.462c-.905.267-1.8-.384-2.7-.655a7.87,7.87,0,0,0-1.989-.213c-.506-.017-1.012-.052-1.516-.1a17.711,17.711,0,0,0,.451,3.777,14.03,14.03,0,0,0,3.943.337,4.025,4.025,0,0,1,1.993.079c-.5,1.046-2.283,1.209-3.305,1.34l-2,.256a12.656,12.656,0,0,0,1.357,2.543c.169.244.351.478.541.707a23.175,23.175,0,0,0,2.7-.731c.779-.264,2.857-1.576,3.509-1.144a9.783,9.783,0,0,1-1.077.913c-.26.206-.521.413-.792.6-.429.3-.885.564-1.34.825l-1.538.885a8.551,8.551,0,0,0,5.537,1.231,13.425,13.425,0,0,0,8.44-4.05,8.208,8.208,0,0,1,3.416-2.265,6.728,6.728,0,0,0,3.494-2.827,5.314,5.314,0,0,0,.555-2.053,6.859,6.859,0,0,0-2.343-5.641,7.092,7.092,0,0,0-1.064-.747c-1.418,2.131-3.657,5.591-4.4,5.967a17.278,17.278,0,0,1,1.412-5.117,17.587,17.587,0,0,0,.684-1.758,14.708,14.708,0,0,0-3.738-.383c-.066,0-.131,0-.2.006q-.4,2.846-.794,5.691c-.074.524-.077,1.985-1.021,1.614-.447-.176-.548-2.342-.634-2.815-.261-1.427-.522-2.859-.7-4.3a29.737,29.737,0,0,1-4.2.121c-.083-.005-.168-.013-.252-.02-.083,1.1-.1,2.283-.128,2.474A21.31,21.31,0,0,1,420.432,368.161Zm11.408,11.222a3.022,3.022,0,0,1,1.71-1.181,8.976,8.976,0,0,1,2.1-.277.622.622,0,0,1,.446.09.427.427,0,0,1-.049.609,1.238,1.238,0,0,1-.635.245l-.285-.083a20.825,20.825,0,0,1-2.914,1.3.517.517,0,0,1-.286.043C431.638,380.064,431.68,379.631,431.84,379.383Zm-13.209-7.1a1.046,1.046,0,0,1-.208,1.135l-.344-.114a9.1,9.1,0,0,1-2.89-2.444c.346-.369.95-.238,1.426-.072A3,3,0,0,1,418.631,372.285ZM423,380.954l-.379.165a11.451,11.451,0,0,1-3.206.9c-.2-.156-.067-.479.113-.654a3.566,3.566,0,0,1,2.4-.7A1.246,1.246,0,0,1,423,380.954Zm3.225,2.977c1.786-.758,1.317.48,0,1.049a12.264,12.264,0,0,1-4.781.98Z" transform="translate(-250.511 -237.806)" fill="#09a4d0"/>
    <g id="Group_10" data-name="Group 10" transform="translate(284.455 163.562)">
      <path id="Path_60" data-name="Path 60" d="M1082.111,580.64a22.118,22.118,0,0,0,3.407-6.341c1.491-3.895,9.874-9.736,19.326-10.886,0,0,2.289,15.207-16.639,16.493C1086.675,580.01,1083.89,579.455,1082.111,580.64Z" transform="translate(-1082.111 -563.413)" fill="#84c571"/>
      <path id="Path_61" data-name="Path 61" d="M1107.991,565.788s-10.125,10.241-21.451,16.3" transform="translate(-1085.734 -565.356)" fill="none" stroke="#6ea04e" stroke-miterlimit="10" stroke-width="1"/>
      <path id="Path_62" data-name="Path 62" d="M1184.611,583.26a17.045,17.045,0,0,1-4.382.909" transform="translate(-1162.371 -579.648)" fill="none" stroke="#6ea04e" stroke-miterlimit="10" stroke-width="1"/>
      <path id="Path_63" data-name="Path 63" d="M1170.4,596.606s-4.8,1.256-6.951,1.157" transform="translate(-1148.646 -590.565)" fill="none" stroke="#6ea04e" stroke-miterlimit="10" stroke-width="1"/>
      <path id="Path_64" data-name="Path 64" d="M1155.708,615.273s-5.281,1.505-8.353.012" transform="translate(-1135.48 -605.834)" fill="none" stroke="#6ea04e" stroke-miterlimit="10" stroke-width="1"/>
      <path id="Path_65" data-name="Path 65" d="M1142.164,626.432s-6.177.678-7.642-1.514" transform="translate(-1124.983 -613.724)" fill="none" stroke="#6ea04e" stroke-miterlimit="10" stroke-width="1"/>
      <path id="Path_66" data-name="Path 66" d="M1124.858,637.791a6.9,6.9,0,0,1-6.52-1.619" transform="translate(-1111.744 -622.929)" fill="none" stroke="#6ea04e" stroke-miterlimit="10" stroke-width="1"/>
      <path id="Path_67" data-name="Path 67" d="M1109.461,645.225a3.887,3.887,0,0,1-2.9-1.481" transform="translate(-1102.114 -629.123)" fill="none" stroke="#6ea04e" stroke-miterlimit="10" stroke-width="1"/>
      <path id="Path_68" data-name="Path 68" d="M1181.969,569.326s-1,2.006-.7,3.237" transform="translate(-1163.177 -568.25)" fill="none" stroke="#6ea04e" stroke-miterlimit="10" stroke-width="1"/>
      <path id="Path_69" data-name="Path 69" d="M1159.807,577.731s-.438,2.874.769,4.375" transform="translate(-1145.602 -575.125)" fill="none" stroke="#6ea04e" stroke-miterlimit="10" stroke-width="1"/>
      <path id="Path_70" data-name="Path 70" d="M1144.561,584.76s-.694,3.417.6,5.377" transform="translate(-1133.042 -580.875)" fill="none" stroke="#6ea04e" stroke-miterlimit="10" stroke-width="1"/>
      <path id="Path_71" data-name="Path 71" d="M1124.773,597.956s.478,3.5,1.972,4.764" transform="translate(-1117.008 -591.669)" fill="none" stroke="#6ea04e" stroke-miterlimit="10" stroke-width="1"/>
      <path id="Path_72" data-name="Path 72" d="M1114.987,605.877s-.557,3.412.767,5.345" transform="translate(-1108.908 -598.148)" fill="none" stroke="#6ea04e" stroke-miterlimit="10" stroke-width="1"/>
      <path id="Path_73" data-name="Path 73" d="M1102.787,622.907a5.409,5.409,0,0,0,.873,3.654" transform="translate(-1098.986 -612.079)" fill="none" stroke="#6ea04e" stroke-miterlimit="10" stroke-width="1"/>
    </g>
    <g id="Group_11" data-name="Group 11" transform="translate(286.04 145.602)">
      <path id="Path_74" data-name="Path 74" d="M1100.252,516.585s.957,12.519-9.436,27.226" transform="translate(-1090.817 -507.148)" fill="none" stroke="#244412" stroke-miterlimit="10" stroke-width="1"/>
      <path id="Path_75" data-name="Path 75" d="M1139.313,474.935s3.764-5.865,1.159-10.2C1140.473,464.733,1137.054,471.327,1139.313,474.935Z" transform="translate(-1129.855 -464.733)" fill="#4d7a30"/>
      <path id="Path_76" data-name="Path 76" d="M1140.436,517.441s2.029-5.924,7.465-6.963C1147.9,510.478,1145.013,515.719,1140.436,517.441Z" transform="translate(-1131.405 -502.152)" fill="#5c903c"/>
      <path id="Path_77" data-name="Path 77" d="M1112.473,518.284s5.5,1.788,4.9,6.629C1117.37,524.913,1112.241,522.308,1112.473,518.284Z" transform="translate(-1108.525 -508.537)" fill="#6fa54c"/>
      <path id="Path_78" data-name="Path 78" d="M1140.746,546.912s-4.4.437-7.721,6.2C1133.025,553.115,1138.041,553.233,1140.746,546.912Z" transform="translate(-1125.343 -531.955)" fill="#4d7a30"/>
      <path id="Path_79" data-name="Path 79" d="M1107.917,546.013s5.662,3.694,3.708,8.465C1111.625,554.478,1106.61,549.852,1107.917,546.013Z" transform="translate(-1104.627 -531.219)" fill="#5c903c"/>
      <path id="Path_80" data-name="Path 80" d="M1129.318,582.48s-3.979.037-7.526,5.287C1121.792,587.767,1125.376,588.633,1129.318,582.48Z" transform="translate(-1116.154 -561.049)" fill="#5c903c"/>
      <path id="Path_81" data-name="Path 81" d="M1102.461,576.446s4.955,4.168,2.194,8.807A8.5,8.5,0,0,1,1102.461,576.446Z" transform="translate(-1099.977 -556.113)" fill="#4d7a30"/>
    </g>
    <g id="Group_54" data-name="Group 54" transform="translate(200.745 97.492)">
      <g id="Group_19" data-name="Group 19" transform="translate(56.689 40.646)" style="isolation: isolate">
        <g id="Group_12" data-name="Group 12" transform="translate(26.162 26.734)">
          <path id="Path_82" data-name="Path 82" d="M1079.956,588.365l-2.57-1.773.681-15.988,2.57,1.773Z" transform="translate(-1077.386 -570.604)" fill="#bf7c3a"/>
        </g>
        <path id="Path_83" data-name="Path 83" d="M1129.5,425.518a1.362,1.362,0,0,1,.151.035l.018,0a1.227,1.227,0,0,1,.155.062l.039.02a1.2,1.2,0,0,1,.135.08l-2.57-1.773c-.027-.019-.056-.037-.085-.054s-.034-.017-.05-.026l-.038-.02-.026-.013a1.247,1.247,0,0,0-.125-.048h0l-.018,0c-.038-.011-.077-.022-.117-.03l-.033,0-.063-.009c-.022,0-.042-.007-.064-.009s-.067,0-.1-.005l2.57,1.773a1.474,1.474,0,0,1,.166.015Z" transform="translate(-1091.562 -423.722)" fill="#a3843e"/>
        <g id="Group_13" data-name="Group 13" transform="translate(26.718)">
          <path id="Path_84" data-name="Path 84" d="M1083.01,451.258l-2.57-1.773,8.419-25.764,2.57,1.773Z" transform="translate(-1080.44 -423.722)" fill="#9a7d3b"/>
        </g>
        <g id="Group_14" data-name="Group 14" transform="translate(2.79 25.764)">
          <path id="Path_85" data-name="Path 85" d="M951.543,575.6l-2.57-1.773,23.928-8.552,2.57,1.773Z" transform="translate(-948.973 -565.274)" fill="#d7ae52"/>
        </g>
        <g id="Group_15" data-name="Group 15" transform="translate(0 36.084)">
          <path id="Path_86" data-name="Path 86" d="M936.215,639.736l-2.57-1.773.681-15.988,2.57,1.773Z" transform="translate(-933.645 -621.976)" fill="#bf7c3a"/>
        </g>
        <g id="Group_16" data-name="Group 16" transform="translate(0.725 34.315)">
          <path id="Path_87" data-name="Path 87" d="M940.2,614.769,937.628,613l2.065-.738,2.57,1.773Z" transform="translate(-937.628 -612.259)" fill="#d7ae52"/>
        </g>
        <g id="Group_17" data-name="Group 17" transform="translate(0.681 35.053)">
          <path id="Path_88" data-name="Path 88" d="M939.957,619.116l-2.57-1.773.044-1.031,2.57,1.773Z" transform="translate(-937.387 -616.313)" fill="#bf7c3a"/>
        </g>
        <g id="Group_18" data-name="Group 18" transform="translate(2.57 1.773)">
          <path id="Path_89" data-name="Path 89" d="M982.9,433.461c1.06.02,1.576,1.088,1.151,2.385l-7.331,22.437-.006.144-.044,1.031-.681,15.988-2.065.738.681-15.988-24.1,8.612-.681,15.988-2.065.738.681-15.988.044-1.031,2.065-.738,23.928-8.552Z" transform="translate(-947.766 -433.461)" fill="#db9249"/>
        </g>
      </g>
      <g id="Group_27" data-name="Group 27" transform="translate(1.695 1.533)" style="isolation: isolate">
        <g id="Group_20" data-name="Group 20" transform="translate(26.162 26.734)">
          <path id="Path_90" data-name="Path 90" d="M777.808,373.469l-2.57-1.773.681-15.988,2.57,1.773Z" transform="translate(-775.238 -355.709)" fill="#866d33"/>
        </g>
        <path id="Path_91" data-name="Path 91" d="M827.35,210.622a1.366,1.366,0,0,1,.151.035l.018,0a1.194,1.194,0,0,1,.155.062l.039.02a1.2,1.2,0,0,1,.135.08l-2.57-1.773c-.027-.019-.055-.037-.085-.054s-.033-.017-.05-.026l-.038-.02-.026-.013a1.245,1.245,0,0,0-.125-.048h0l-.018,0c-.038-.012-.077-.022-.117-.031l-.033,0-.064-.009c-.021,0-.042-.007-.064-.009s-.067,0-.1-.005l2.57,1.773a1.43,1.43,0,0,1,.166.015Z" transform="translate(-789.414 -208.826)" fill="#a3843e"/>
        <g id="Group_21" data-name="Group 21" transform="translate(26.718)">
          <path id="Path_92" data-name="Path 92" d="M780.863,236.362l-2.57-1.773,8.419-25.764,2.57,1.773Z" transform="translate(-778.293 -208.826)" fill="#9a7d3b"/>
        </g>
        <g id="Group_22" data-name="Group 22" transform="translate(2.79 25.764)">
          <path id="Path_93" data-name="Path 93" d="M649.4,360.7l-2.57-1.773,23.928-8.551,2.57,1.773Z" transform="translate(-646.825 -350.378)" fill="#d7ae52"/>
        </g>
        <g id="Group_23" data-name="Group 23" transform="translate(0 36.084)">
          <path id="Path_94" data-name="Path 94" d="M634.068,424.84l-2.57-1.773.681-15.988,2.57,1.773Z" transform="translate(-631.498 -407.079)" fill="#866d33"/>
        </g>
        <g id="Group_24" data-name="Group 24" transform="translate(0.725 34.315)">
          <path id="Path_95" data-name="Path 95" d="M638.05,399.873l-2.57-1.773,2.065-.738,2.57,1.773Z" transform="translate(-635.48 -397.362)" fill="#d7ae52"/>
        </g>
        <g id="Group_25" data-name="Group 25" transform="translate(0.681 35.053)">
          <path id="Path_96" data-name="Path 96" d="M637.809,404.22l-2.57-1.773.044-1.031,2.57,1.773Z" transform="translate(-635.239 -401.417)" fill="#866d33"/>
        </g>
        <g id="Group_26" data-name="Group 26" transform="translate(2.57 1.773)">
          <path id="Path_97" data-name="Path 97" d="M680.756,218.565c1.059.02,1.575,1.088,1.151,2.385l-7.33,22.437-.006.144-.044,1.031-.681,15.988-2.065.738.681-15.988-24.1,8.612-.681,15.987-2.065.738.681-15.988.044-1.031,2.065-.738,23.928-8.551Z" transform="translate(-645.618 -218.565)" fill="#caa44d"/>
        </g>
      </g>
      <g id="Group_53" data-name="Group 53">
        <g id="Group_31" data-name="Group 31" transform="translate(20.757 23.571)" style="isolation: isolate">
          <g id="Group_28" data-name="Group 28" transform="translate(0 2.235)">
            <path id="Path_98" data-name="Path 98" d="M798.487,388.281l-62.259-43.987.09-2.108,62.259,43.987Z" transform="translate(-736.228 -342.186)" fill="#866d33"/>
          </g>
          <g id="Group_29" data-name="Group 29" transform="translate(0.09)">
            <path id="Path_99" data-name="Path 99" d="M798.98,376.129l-62.259-43.987,6.254-2.235,62.259,43.987Z" transform="translate(-736.722 -329.907)" fill="#ffcf61"/>
          </g>
          <g id="Group_30" data-name="Group 30" transform="translate(62.259 43.987)">
            <path id="Path_100" data-name="Path 100" d="M1084.636,571.584l-.09,2.108-6.253,2.235.09-2.108Z" transform="translate(-1078.293 -571.584)" fill="#eda454"/>
          </g>
        </g>
        <g id="Group_35" data-name="Group 35" transform="translate(26.575 15.554)" style="isolation: isolate">
          <g id="Group_32" data-name="Group 32" transform="translate(2.142)">
            <path id="Path_101" data-name="Path 101" d="M842.222,329.849l-62.259-43.987,1.279.021L843.5,329.87Z" transform="translate(-779.963 -285.862)" fill="#caa44d"/>
          </g>
          <g id="Group_33" data-name="Group 33">
            <path id="Path_102" data-name="Path 102" d="M830.453,336.444l-62.259-43.987,2.142-6.595,62.259,43.987Z" transform="translate(-768.194 -285.862)" fill="#ffb762"/>
          </g>
          <g id="Group_34" data-name="Group 34" transform="translate(62.259 43.987)">
            <path id="Path_103" data-name="Path 103" d="M1112.4,527.539l1.279.021-2.142,6.595-1.279-.021Z" transform="translate(-1110.259 -527.539)" fill="#eda454"/>
          </g>
        </g>
        <g id="Group_39" data-name="Group 39" transform="translate(29.178 7.599)" style="isolation: isolate">
          <g id="Group_36" data-name="Group 36" transform="translate(2.142)">
            <path id="Path_104" data-name="Path 104" d="M856.521,286.14l-62.259-43.987,1.279.021L857.8,286.16Z" transform="translate(-794.263 -242.152)" fill="#caa44d"/>
          </g>
          <g id="Group_37" data-name="Group 37">
            <path id="Path_105" data-name="Path 105" d="M844.753,292.734l-62.259-43.987,2.142-6.595,62.258,43.987Z" transform="translate(-782.494 -242.152)" fill="#ffb762"/>
          </g>
          <g id="Group_38" data-name="Group 38" transform="translate(62.259 43.987)">
            <path id="Path_106" data-name="Path 106" d="M1126.7,483.83l1.279.021-2.142,6.595-1.279-.021Z" transform="translate(-1124.559 -483.83)" fill="#eda454"/>
          </g>
        </g>
        <g id="Group_40" data-name="Group 40" transform="translate(31.78 1.209)">
          <path id="Path_107" data-name="Path 107" d="M859.052,256.063l-62.259-43.987,1.633-5.029,62.259,43.987Z" transform="translate(-796.793 -207.047)" fill="#ffb762"/>
        </g>
        <path id="Path_108" data-name="Path 108" d="M868.329,245.114a1.961,1.961,0,0,1,1.568-1.06l-6.134-4.316a3.046,3.046,0,0,0-.371-.261c-.282-.138-56.448-39.235-56.671-39.074a2.451,2.451,0,0,0-.838,1.107c-.055.146.031.148.15.232,1.111.782,61.889,43.774,62.021,43.82a.25.25,0,0,1,.052.036A2.4,2.4,0,0,1,868.329,245.114Z" transform="translate(-772.436 -200.403)" fill="#ffcf61"/>
        <g id="Group_41" data-name="Group 41" transform="translate(94.039 43.651)">
          <path id="Path_109" data-name="Path 109" d="M1141.834,440.309a1.27,1.27,0,0,1,.446-.079l-2.143,6.594-1.279-.019,1.633-5.029A2.371,2.371,0,0,1,1141.834,440.309Z" transform="translate(-1138.857 -440.23)" fill="#eda454"/>
        </g>
        <g id="Group_45" data-name="Group 45" transform="translate(13.844 26.042)" style="isolation: isolate">
          <g id="Group_42" data-name="Group 42" transform="translate(0 2.235)">
            <path id="Path_110" data-name="Path 110" d="M760.5,401.856l-62.259-43.987.09-2.108,62.259,43.987Z" transform="translate(-698.245 -355.761)" fill="#866d33"/>
          </g>
          <g id="Group_43" data-name="Group 43" transform="translate(0.09)">
            <path id="Path_111" data-name="Path 111" d="M761,389.7l-62.259-43.987,6.254-2.235,62.259,43.987Z" transform="translate(-698.738 -343.482)" fill="#ffcf61"/>
          </g>
          <g id="Group_44" data-name="Group 44" transform="translate(62.259 43.987)">
            <path id="Path_112" data-name="Path 112" d="M1046.652,585.159l-.09,2.108-6.254,2.235.09-2.108Z" transform="translate(-1040.309 -585.159)" fill="#eda454"/>
          </g>
        </g>
        <g id="Group_49" data-name="Group 49" transform="translate(6.93 28.512)" style="isolation: isolate">
          <g id="Group_46" data-name="Group 46" transform="translate(0 2.235)">
            <path id="Path_113" data-name="Path 113" d="M722.519,415.431l-62.259-43.987.09-2.108,62.259,43.987Z" transform="translate(-660.261 -369.336)" fill="#866d33"/>
          </g>
          <g id="Group_47" data-name="Group 47" transform="translate(0.09)">
            <path id="Path_114" data-name="Path 114" d="M723.013,403.279l-62.259-43.987,6.254-2.235,62.259,43.987Z" transform="translate(-660.754 -357.057)" fill="#ffcf61"/>
          </g>
          <g id="Group_48" data-name="Group 48" transform="translate(62.259 43.987)">
            <path id="Path_115" data-name="Path 115" d="M1008.669,598.734l-.09,2.108-6.254,2.235.09-2.108Z" transform="translate(-1002.325 -598.734)" fill="#eda454"/>
          </g>
        </g>
        <g id="Group_52" data-name="Group 52" transform="translate(0 30.983)" style="isolation: isolate">
          <g id="Group_50" data-name="Group 50" transform="translate(1.513)">
            <path id="Path_116" data-name="Path 116" d="M692.757,416.351,630.5,372.364l4.847-1.732L697.6,414.619Z" transform="translate(-630.498 -370.631)" fill="#ffcf61"/>
          </g>
          <path id="Path_117" data-name="Path 117" d="M684.574,425.662a2.392,2.392,0,0,1,1.382-1.529c-.9-.636-60.82-42.975-62.018-43.818-.057-.04-.169-.157-.24-.169s-.269.123-.337.164a2.207,2.207,0,0,0-.293.217,2.551,2.551,0,0,0-.454.521,2.426,2.426,0,0,0-.394,1.272c0,.1-.064.348-.018.437.01.02.053.034.07.049.358.318,61.987,43.842,62.133,43.9a.3.3,0,0,1,.055.039A4.254,4.254,0,0,1,684.574,425.662Z" transform="translate(-622.184 -378.414)" fill="#ffb762"/>
          <g id="Group_51" data-name="Group 51" transform="translate(62.275 43.987)">
            <path id="Path_118" data-name="Path 118" d="M970.684,612.309l-.09,2.108-6.253,2.235.025-.589a2.417,2.417,0,0,1,1.471-2.022Z" transform="translate(-964.341 -612.309)" fill="#eda454"/>
          </g>
        </g>
      </g>
    </g>
    <g id="Group_83" data-name="Group 83" transform="translate(175.074 95.357)">
      <g id="Group_65" data-name="Group 65" transform="translate(1.137 57.937)">
        <g id="Group_55" data-name="Group 55" transform="translate(34.366 11.955)">
          <path id="Path_119" data-name="Path 119" d="M677.3,572.737a.7.7,0,0,1,1,.757,1.8,1.8,0,0,1-1.1,1.506.7.7,0,0,1-1-.757A1.8,1.8,0,0,1,677.3,572.737Z" transform="translate(-676.205 -572.676)" fill="#d35050"/>
        </g>
        <g id="Group_56" data-name="Group 56" transform="translate(33.719 11.216)">
          <path id="Path_120" data-name="Path 120" d="M674.423,568.716a1.138,1.138,0,0,1,1.619,1.226,2.915,2.915,0,0,1-1.775,2.436,1.136,1.136,0,0,1-1.616-1.224A2.911,2.911,0,0,1,674.423,568.716Zm-.126,2.964a1.8,1.8,0,0,0,1.1-1.506.7.7,0,0,0-1-.757,1.8,1.8,0,0,0-1.1,1.506.7.7,0,0,0,1,.757" transform="translate(-672.649 -568.618)" fill="#ff6160"/>
        </g>
        <g id="Group_60" data-name="Group 60" transform="translate(21.212 13.465)" style="isolation: isolate">
          <g id="Group_57" data-name="Group 57" transform="translate(0 0.963)">
            <path id="Path_121" data-name="Path 121" d="M605.388,591.339l-1.455-1.005,1.3-4.073,1.455,1.005Z" transform="translate(-603.934 -586.261)" fill="#a83d3d"/>
          </g>
          <g id="Group_58" data-name="Group 58" transform="translate(1.303)">
            <path id="Path_122" data-name="Path 122" d="M612.55,582.939l-1.455-1.005,2.694-.963,1.455,1.005Z" transform="translate(-611.095 -580.972)" fill="#d7ae52"/>
          </g>
          <g id="Group_59" data-name="Group 59" transform="translate(1.455 1.005)">
            <path id="Path_123" data-name="Path 123" d="M615.923,586.5l-2.65,4.554-1.347.481,1.3-4.073Z" transform="translate(-611.926 -586.495)" fill="#d35050"/>
          </g>
        </g>
        <g id="Group_64" data-name="Group 64" style="isolation: isolate">
          <g id="Group_61" data-name="Group 61" transform="translate(0 0.963)">
            <path id="Path_124" data-name="Path 124" d="M488.845,517.359l-1.455-1.005,1.3-4.073,1.455,1.005Z" transform="translate(-487.39 -512.281)" fill="#a83d3d"/>
          </g>
          <g id="Group_62" data-name="Group 62" transform="translate(1.303)">
            <path id="Path_125" data-name="Path 125" d="M496.006,508.96l-1.455-1.005,2.694-.963L498.7,508Z" transform="translate(-494.552 -506.992)" fill="#d7ae52"/>
          </g>
          <g id="Group_63" data-name="Group 63" transform="translate(1.455 1.005)">
            <path id="Path_126" data-name="Path 126" d="M499.379,512.516l-2.65,4.554-1.347.481,1.3-4.073Z" transform="translate(-495.382 -512.516)" fill="#d35050"/>
          </g>
        </g>
        <path id="Path_127" data-name="Path 127" d="M654.957,557.709c.346-.926,1.678-2.374,2.764-1.609-1.551-1.091-1.417-1.029-3.5-2.493-.158-.111-.313-.231-.475-.335a1.672,1.672,0,0,0-1.979.422c-.855.79-1.449,2.378-.321,3.173,1.885,1.326,1.882,1.4,3.726,2.653l.1.067A1.605,1.605,0,0,1,654.957,557.709Z" transform="translate(-621.079 -544.698)" fill="#a83d3d"/>
      </g>
      <g id="Group_75" data-name="Group 75" transform="translate(23.302)">
        <g id="Group_69" data-name="Group 69" transform="translate(9.84 9.163)" style="isolation: isolate">
          <g id="Group_66" data-name="Group 66" transform="translate(0 0.713)">
            <path id="Path_128" data-name="Path 128" d="M665.076,256.956l-1.84-1.275.543-12.742,1.84,1.275Z" transform="translate(-663.236 -242.939)" fill="#d35050"/>
          </g>
          <g id="Group_67" data-name="Group 67" transform="translate(0.543)">
            <path id="Path_129" data-name="Path 129" d="M668.057,241.008l-1.84-1.275,2-.713,1.84,1.275Z" transform="translate(-666.217 -239.02)" fill="#d7ae52"/>
          </g>
          <g id="Group_68" data-name="Group 68" transform="translate(1.84 1.275)">
            <path id="Path_130" data-name="Path 130" d="M675.883,246.023l-.543,12.742-2,.713.543-12.742Z" transform="translate(-673.345 -246.023)" fill="#f45d5d"/>
          </g>
        </g>
        <g id="Group_73" data-name="Group 73" transform="translate(0 2.359)" style="isolation: isolate">
          <g id="Group_70" data-name="Group 70" transform="translate(0 0.713)">
            <path id="Path_131" data-name="Path 131" d="M611.011,219.571l-1.84-1.275.543-12.742,1.84,1.275Z" transform="translate(-609.171 -205.554)" fill="#d35050"/>
          </g>
          <g id="Group_71" data-name="Group 71" transform="translate(0.543)">
            <path id="Path_132" data-name="Path 132" d="M613.992,203.623l-1.84-1.275,2-.713,1.84,1.275Z" transform="translate(-612.152 -201.635)" fill="#d7ae52"/>
          </g>
          <g id="Group_72" data-name="Group 72" transform="translate(1.84 1.275)">
            <path id="Path_133" data-name="Path 133" d="M621.818,208.638l-.543,12.742-2,.713.543-12.742Z" transform="translate(-619.28 -208.638)" fill="#f45d5d"/>
          </g>
        </g>
        <path id="Path_134" data-name="Path 134" d="M630.989,196.681a1.125,1.125,0,0,1,.788.175l-10.463-7.362c-.646-.454-1.229-1.041-2.085-.735l3.936,2.769,6.166,4.339.967.681a1.344,1.344,0,0,0,.25.176C630.7,196.779,630.814,196.7,630.989,196.681Z" transform="translate(-617.398 -188.674)" fill="#ff8a8a"/>
        <path id="Path_135" data-name="Path 135" d="M620.634,199.306a2.934,2.934,0,0,1,1.749-2.086l-10.8-7.6a2.386,2.386,0,0,0-.548-.386c-.18-.049-.486.2-.633.309a3,3,0,0,0-.732.784,3.678,3.678,0,0,0-.493,1.981c-.013.3-.007.267.219.426l9.113,6.412,1.24.873a4.389,4.389,0,0,0,.7.494.612.612,0,0,1,.1.068A3.789,3.789,0,0,1,620.634,199.306Z" transform="translate(-609.171 -189.126)" fill="#ff6160"/>
        <g id="Group_74" data-name="Group 74" transform="translate(11.374 7.993)">
          <path id="Path_136" data-name="Path 136" d="M673.5,232.692a1.154,1.154,0,0,1,1.642,1.244l-.038.887-.6.214-2,.713-.849.3.038-.887A2.956,2.956,0,0,1,673.5,232.692Z" transform="translate(-671.664 -232.592)" fill="#f45d5d"/>
        </g>
      </g>
      <g id="Group_82" data-name="Group 82" transform="translate(0 7.016)" style="isolation: isolate">
        <g id="Group_78" data-name="Group 78" transform="translate(0.585 49.445)">
          <path id="Path_137" data-name="Path 137" d="M507.212,516.493l-21.989-15.517a2.323,2.323,0,0,1-.862-2.089L506.35,514.4A2.323,2.323,0,0,0,507.212,516.493Z" transform="translate(-484.358 -498.887)" fill="#d35050"/>
          <g id="Group_77" data-name="Group 77" clip-path="url(#clip-path)">
            <g id="Group_76" data-name="Group 76" style="isolation: isolate">
              <path id="Path_138" data-name="Path 138" d="M507.212,516.493l-21.989-15.517a2.323,2.323,0,0,1-.862-2.089L506.35,514.4a2.323,2.323,0,0,0,.862,2.09" transform="translate(-484.358 -498.887)" fill="#d35050"/>
            </g>
          </g>
        </g>
        <path id="Path_140" data-name="Path 140" d="M601.676,242.754a1.45,1.45,0,0,1,1.09.206c-1.47-1.035-19.187-13.545-21.272-15.012-.692-.487-1.255-.942-2.169-.616l3.936,2.769c2.055,1.446,14.718,10.4,16.773,11.847l.967.681a1.393,1.393,0,0,0,.25.176C601.4,242.861,601.5,242.784,601.676,242.754Z" transform="translate(-561.455 -227.222)" fill="#ff6160"/>
        <g id="Group_79" data-name="Group 79" transform="translate(6.746 0.11)">
          <path id="Path_141" data-name="Path 141" d="M540.195,247.321,518.206,231.8l11.124-3.976,21.989,15.517Z" transform="translate(-518.206 -227.829)" fill="#ff8a8a"/>
        </g>
        <g id="Group_80" data-name="Group 80" transform="translate(0.589 10.251)">
          <path id="Path_142" data-name="Path 142" d="M506.365,338.253l-21.989-15.517,1.669-39.195,21.989,15.517Z" transform="translate(-484.376 -283.542)" fill="#f45858"/>
        </g>
        <path id="Path_143" data-name="Path 143" d="M515.518,270.552a7.292,7.292,0,0,1,4.391-5.371c-1.571-1.105-19.5-13.762-21.583-15.231-.094-.066-.286-.267-.405-.285-.189-.028-.585.251-.755.343a5.971,5.971,0,0,0-.751.482,7.492,7.492,0,0,0-1.15,1.072,7.809,7.809,0,0,0-1.549,2.721,5.72,5.72,0,0,0-.178.7c-.036.193-.191.664-.1.846.016.033.089.056.115.081a5.992,5.992,0,0,0,.75.528L514.59,270.76a4.055,4.055,0,0,0,.736.518.523.523,0,0,1,.1.067A5.538,5.538,0,0,1,515.518,270.552Z" transform="translate(-491.175 -245.578)" fill="#ff6160"/>
        <g id="Group_81" data-name="Group 81" transform="translate(22.574 15.503)">
          <path id="Path_144" data-name="Path 144" d="M622.453,312.524a1.438,1.438,0,0,1,2.045,1.549l-1.792,42.075a4.455,4.455,0,0,1-2.713,3.728l-11.846,4.234a2.091,2.091,0,0,1-2.976-2.251l1.669-39.195a7.369,7.369,0,0,1,4.488-6.165Z" transform="translate(-605.169 -312.4)" fill="#f45d5d"/>
        </g>
        <path id="Path_145" data-name="Path 145" d="M549.367,238.535l20.8,14.411a3.273,3.273,0,0,1,1.408,2.781l-.942,33.638" transform="translate(-536.949 -236.476)" fill="none" stroke="#702a2a" stroke-miterlimit="10" stroke-width="1" stroke-dasharray="5"/>
        <path id="Path_146" data-name="Path 146" d="M584.107,282.565,573.324,286.2a9.245,9.245,0,0,0-6.287,8.4l-.825,21.062,3.54,2.006.874-21.551a8.377,8.377,0,0,1,5.729-7.611l10.927-3.63Z" transform="translate(-550.728 -272.492)" fill="#a83d3d"/>
        <path id="Path_147" data-name="Path 147" d="M519.92,242.1l-11.961,4.038a9.246,9.246,0,0,0-6.287,8.4l-.824,21.062,3.54,2.006.874-21.551a8.377,8.377,0,0,1,5.729-7.611l12.1-4.036Z" transform="translate(-497.261 -239.392)" fill="#a83d3d"/>
        <path id="Path_148" data-name="Path 148" d="M505.917,331.907l-5.069-3.2v-2.08l5.069,3.2Z" transform="translate(-497.261 -308.536)" fill="#f45858"/>
        <path id="Path_149" data-name="Path 149" d="M504.6,352.831l-5.069-3.2v-2.08l5.069,3.2Z" transform="translate(-496.182 -325.652)" fill="#f45858"/>
        <path id="Path_150" data-name="Path 150" d="M570.354,365.661l-5.069-3.2v-2.08l5.069,3.2Z" transform="translate(-549.971 -336.146)" fill="#f45858"/>
        <path id="Path_151" data-name="Path 151" d="M569.035,386.585l-5.069-3.2v-2.08l5.069,3.2Z" transform="translate(-548.891 -353.262)" fill="#f45858"/>
        <path id="Path_152" data-name="Path 152" d="M500.1,445.711l2.176-13.195-17.9-11c-3.888-.345-3.133,6.584-3.232,9.587a3.249,3.249,0,0,0,1.168,2.795Z" transform="translate(-481.141 -386.146)" fill="#ff6160"/>
        <path id="Path_153" data-name="Path 153" d="M582.579,481.939l-.533,13.891a3.085,3.085,0,0,1-2.732-3.3C579.412,489.527,578.691,481.594,582.579,481.939Z" transform="translate(-561.444 -435.569)" fill="#d35050"/>
        <line id="Line_26" data-name="Line 26" x2="15.635" y2="8.752" transform="translate(2.232 37.606)" fill="none" stroke="#702a2a" stroke-miterlimit="10" stroke-width="1" stroke-dasharray="5"/>
        <path id="Path_154" data-name="Path 154" d="M626.688,455.811l-17.517,4.075,1.476,21.7,13.292-4.737c4.763,0,5.2-7.934,5.2-7.934C629.965,456.969,626.688,455.811,626.688,455.811Z" transform="translate(-585.869 -414.206)" fill="#ff6160"/>
        <path id="Path_155" data-name="Path 155" d="M605.862,478.2s3.933,1.223,3.109,13.169c0,0-.436,6.216-1.633,8.532,0,0-2.366.148-2.2-3S605.862,478.2,605.862,478.2Z" transform="translate(-582.559 -432.518)" fill="#d35050"/>
        <line id="Line_27" data-name="Line 27" y1="3.527" x2="14.786" transform="translate(26.525 44.363)" fill="none" stroke="#702a2a" stroke-miterlimit="10" stroke-width="1" stroke-dasharray="5"/>
      </g>
    </g>
    <g id="Group_90" data-name="Group 90" transform="translate(204.852 75.11)">
      <path id="Path_156" data-name="Path 156" d="M940.987,115.159a7.744,7.744,0,1,1-5.894-9.229A7.744,7.744,0,0,1,940.987,115.159Z" transform="translate(-874.548 -100.593)" fill="#feb862"/>
      <path id="Path_157" data-name="Path 157" d="M902.869,103.131c-4.238,4.915-12.693,4.706-19.053-.611s-10.692-15.958-2.7-23.932c3.926-3.919,5.468,2.833,15.636,9.7C906.5,94.87,905.065,100.583,902.869,103.131Z" transform="translate(-834.546 -77.432)" fill="#ffce61"/>
      <path id="Path_158" data-name="Path 158" d="M681.7,497.253l2.668-1.4-3.037-8.218-10.015-27.1a4.4,4.4,0,1,0-7.982,3.667l14.036,25.26Z" transform="translate(-659.493 -388.452)" fill="#2e4e75"/>
      <path id="Path_159" data-name="Path 159" d="M704.18,549.089l-3.037-8.218-6.7-18.133c-2.108,1.251-5.414,1.566-7.442,1.634L697.182,542.7l4.33,7.792Z" transform="translate(-679.31 -441.688)" fill="#682f1d"/>
      <path id="Path_160" data-name="Path 160" d="M662.7,429.3h0a4.473,4.473,0,0,1,3.378-5.2l31.83-7.415,4.464,13.076L667.5,432.913A4.473,4.473,0,0,1,662.7,429.3Z" transform="translate(-659.368 -354.939)" fill="#2e4e75"/>
      <path id="Path_161" data-name="Path 161" d="M755.794,668.1l-2.129,3.69,5.961-3.309-.888-1.2Z" transform="translate(-733.842 -559.93)" fill="#682f1d"/>
      <path id="Path_162" data-name="Path 162" d="M905.623,141.035c15.309,4.784-1.536,6.2,11.739,16.635,7.258,5.706,28.556-4.86,29.611,21.068.343,8.425-10.368,19.244-29.828,13.325-26.129-7.946-22.92-46.493-16.562-50.438C900.583,141.625,903.767,140.455,905.623,141.035Z" transform="translate(-850.381 -129.327)" fill="#543720"/>
      <path id="Path_163" data-name="Path 163" d="M692.049,580.314a4.4,4.4,0,0,0-7.448-.227l-14.075,20.887-7.052,10.47,2.455,1.743,8.226-8.9,17.333-18.751A4.405,4.405,0,0,0,692.049,580.314Z" transform="translate(-660.066 -487.01)" fill="#31527f"/>
      <path id="Path_164" data-name="Path 164" d="M777.4,464.816h0a4.473,4.473,0,0,1-.876-6.137l16.716-28.307L806.5,433.3,806.085,438a18.711,18.711,0,0,1-6.51,12.6l-16.19,13.78A4.473,4.473,0,0,1,777.4,464.816Z" transform="translate(-751.847 -366.134)" fill="#31527f"/>
      <path id="Path_165" data-name="Path 165" d="M757.634,173.272l15.432,13.249a5.606,5.606,0,0,0,8.329-1.045h0a5.606,5.606,0,0,0-1.865-8.044l-18.279-9.247a3.138,3.138,0,0,0-4.147.976h0A3.137,3.137,0,0,0,757.634,173.272Z" transform="translate(-736.217 -151.334)" fill="#326187"/>
      <rect id="Rectangle_2" data-name="Rectangle 2" width="5.766" height="5.125" transform="matrix(-0.993, -0.119, 0.119, -0.993, 55.447, 27.981)" fill="#e2906d"/>
      <path id="Path_166" data-name="Path 166" d="M910.984,151.32c-.851,2.8-.741,7.461.713,7.435,1.263-.022,6.354,0,8.492-4.269,3.034-6.063-.077-6.984-2.478-7.512A6.3,6.3,0,0,0,910.984,151.32Z" transform="translate(-862.089 -134.262)" fill="#ee9f74"/>
      <path id="Path_167" data-name="Path 167" d="M648.934,753.229l-4.182-.809,5.071,4.556.841-1.229Z" transform="translate(-644.752 -629.566)" fill="#682f1d"/>
      <path id="Path_168" data-name="Path 168" d="M916,197.151l-1.815-.076s.234.7.554.726S915.92,197.5,916,197.151Z" transform="translate(-865.148 -175.299)" fill="#fff"/>
      <path id="Path_169" data-name="Path 169" d="M785.411,237.142a6.8,6.8,0,0,0,.731.379,61.631,61.631,0,0,0,1.2,8.511l-15.513,13.44s5.931,8.962,10.126,11.884c3.892,2.71,16.589,5.619,19.635,2.207,5.561-6.228,2.391-23.653,2.391-23.653l9.348-18.249a4.588,4.588,0,0,0-2.883-6.717l-6.832-1.7-6.632-1.652-5.427-1.351a4.693,4.693,0,0,0-5.722,3.585,21.506,21.506,0,0,0-.22,3.991,17.3,17.3,0,0,1-1.6,3.1C782.448,233.458,782.869,235.577,785.411,237.142Z" transform="translate(-748.699 -194.134)" fill="#356492"/>
      <path id="Path_170" data-name="Path 170" d="M910.966,215.269s1.646,1.477,6.426.646c0,0,1.682,2.757-.047,3.884-1.787,1.166-7.354-1.637-7.354-1.637A3.449,3.449,0,0,1,910.966,215.269Z" transform="translate(-861.696 -190.182)" fill="#356492"/>
      <path id="Path_171" data-name="Path 171" d="M906.59,182.9a18.579,18.579,0,0,1-1.438,1.267s1.235,1.034,1.8.493Z" transform="translate(-857.757 -163.706)" fill="#ee9f74"/>
      <path id="Path_172" data-name="Path 172" d="M916.289,142.63a6.794,6.794,0,0,1,3.562,6.932c-.6,5.313,1.97,7.2,1.97,7.2s4.605-6.744,3.983-11.623-6.685-5.865-6.685-5.865-5.072-.952-4.6,5.125C914.516,144.4,914.943,142.626,916.289,142.63Z" transform="translate(-865.391 -127.974)" fill="#543720"/>
      <path id="Path_173" data-name="Path 173" d="M779.929,123.138l-20.989,8.325a3.1,3.1,0,0,0-1.7,4.117h0a3.1,3.1,0,0,0,4.362,1.46l19.69-11.113Z" transform="translate(-736.557 -114.819)" fill="#ee9f74"/>
      <path id="Path_174" data-name="Path 174" d="M883.372,116.6s2.114.7,3.01.173-.75-1.2-.75-1.2,3.855-1.349,2.9-2.906-4.566-.454-6.26,1.523Z" transform="translate(-839.043 -105.648)" fill="#ee9f74"/>
      <path id="Path_175" data-name="Path 175" d="M831.259,257.791l24.715-7.4a5.607,5.607,0,0,1,6.876,4.816h0a5.606,5.606,0,0,1-5.408,6.24l-25.362,2.536a3.138,3.138,0,0,1-3.211-2.8h0A3.138,3.138,0,0,1,831.259,257.791Z" transform="translate(-795.344 -218.78)" fill="#3e6e96"/>
      <g id="Group_84" data-name="Group 84" transform="translate(13.958 34.217)">
        <path id="Path_176" data-name="Path 176" d="M722.332,265.427,744.4,270.2a3.1,3.1,0,0,1,2.348,3.783h0a3.1,3.1,0,0,1-4.064,2.154L721.441,268.4Z" transform="translate(-721.441 -265.427)" fill="#ee9f74"/>
      </g>
      <g id="Group_89" data-name="Group 89" transform="translate(10.347 23.27)" style="isolation: isolate">
        <path id="Path_177" data-name="Path 177" d="M703.5,205.6l1.045-.3-.015,0-.025-.005-.026,0-.028,0h-.03l-.035,0-.036.008-1.045.3a.322.322,0,0,1,.091-.012h0A.382.382,0,0,1,703.5,205.6Z" transform="translate(-702.994 -205.285)" fill="#f7e5bf"/>
        <path id="Path_178" data-name="Path 178" d="M724.719,272.471l-.881.253c-.172.049-.148.04-.173.216a.5.5,0,0,1-.3.442,8.316,8.316,0,0,0,1.045-.3A.593.593,0,0,0,724.719,272.471Z" transform="translate(-719.403 -260.243)" fill="#856b32"/>
        <g id="Group_85" data-name="Group 85" transform="translate(0.504 0.015)">
          <path id="Path_179" data-name="Path 179" d="M704.369,205.669l1.045-.3,2.862.832-1.045.3Z" transform="translate(-704.369 -205.369)" fill="#ffedc5"/>
        </g>
        <g id="Group_86" data-name="Group 86" transform="translate(3.919 1.761)">
          <path id="Path_180" data-name="Path 180" d="M723.132,215.263l1.045-.3.352,10.467-1.045.3Z" transform="translate(-723.132 -214.963)" fill="#f4d99d"/>
        </g>
        <path id="Path_181" data-name="Path 181" d="M720.3,210.359a1.146,1.146,0,0,1,.346.8l1.045-.3a1.167,1.167,0,0,0-.136-.614.976.976,0,0,0-.417-.3l-1.045.3A.551.551,0,0,1,720.3,210.359Z" transform="translate(-716.728 -209.093)" fill="#f7e5bf"/>
        <g id="Group_87" data-name="Group 87" transform="translate(0 0.3)">
          <path id="Path_182" data-name="Path 182" d="M704.965,207.781a1,1,0,0,1,.553.914l.352,10.467c.014.42-.211.692-.5.608l-2.862-.832a1,1,0,0,1-.555-.915l-.352-10.467c-.014-.42.211-.692.5-.607Z" transform="translate(-701.599 -206.934)" fill="#fee5a5"/>
        </g>
        <g id="Group_88" data-name="Group 88" transform="translate(0.106 0.619)">
          <path id="Path_183" data-name="Path 183" d="M705.38,209.489a.947.947,0,0,1,.525.869l.334,9.948c.014.4-.2.658-.477.577l-2.72-.791a.946.946,0,0,1-.527-.869l-.334-9.948c-.013-.4.2-.658.479-.577Z" transform="translate(-702.181 -208.684)" fill="#e0c485"/>
        </g>
      </g>
      <path id="Path_184" data-name="Path 184" d="M710.307,254.467a2.254,2.254,0,0,0,1.145-1.8,2.891,2.891,0,0,0-.269-1.744c-.6-.85-1.137.847-1.137.847s-1.66-3.732-3.134-2.654c-1.248.912-.438,3.569,1.12,5.289a1.494,1.494,0,0,0,1.836.309Z" transform="translate(-695.099 -217.707)" fill="#ee9f74"/>
      <path id="Path_185" data-name="Path 185" d="M920.577,134.531s4.832-.825,11.282,8.86c0,0,3.445-2.6,2.209-5.461S924.535,128.808,920.577,134.531Z" transform="translate(-870.375 -122.233)" fill="#ffce61"/>
      <path id="Path_186" data-name="Path 186" d="M852.885,351.89s6.1,5.185,17.82,4.266c0,0,.566,2.25-.866,2.815,0,0-11.73,1.6-16.953-4.385A2.3,2.3,0,0,1,852.885,351.89Z" transform="translate(-814.626 -301.936)" fill="#ba4542"/>
      <path id="Path_187" data-name="Path 187" d="M681.962,652.767a16.259,16.259,0,0,1-4.587-5.034L670.526,657.9l-7.052,10.47,2.455,1.743,8.226-8.9Z" transform="translate(-660.066 -543.933)" fill="#682f1d"/>
      <path id="Path_188" data-name="Path 188" d="M807.931,283.318s1.816,2.321-.662,5.334a4.413,4.413,0,0,0,3,1.681s2.719,1.121,4.05.981,3.364-1.68,3.364-2.943a3.672,3.672,0,0,0-3.009-3.91l-3.152-.364S808.968,282.891,807.931,283.318Z" transform="translate(-777.69 -245.77)" fill="#3e6e96"/>
      <path id="Path_189" data-name="Path 189" d="M766.385,151.959a3.882,3.882,0,0,0,2.394,4.457s-1.384,1.837-2.474,1.924c0,0-7.411,5.951-9.2.744-1.445-4.2,2.981-5.2,2.981-5.2S764.274,151.378,766.385,151.959Z" transform="translate(-736.418 -138.323)" fill="#3e6e96"/>
    </g>
    <g id="Group_93" data-name="Group 93" transform="translate(248.574 127.182)">
      <path id="Path_190" data-name="Path 190" d="M888.894,374.345s8.419-12.106,23.153-10.7c0,0,0,7.823-9.067,10.845A20.521,20.521,0,0,1,888.894,374.345Z" transform="translate(-888.18 -363.528)" fill="#16537f"/>
      <path id="Path_191" data-name="Path 191" d="M904.268,386.081a21.593,21.593,0,0,0,11.288-.7c5.909-1.97,7.966-5.978,8.683-8.531C913.906,376.652,906.978,383.035,904.268,386.081Z" transform="translate(-900.756 -374.418)" fill="#134863"/>
      <path id="Path_192" data-name="Path 192" d="M885.687,374.853s-.971,18.191-.648,21.606,23.962,3.91,28.172-8.4c0,0,1.619-13.655-4.371-23.911C908.839,364.148,903.658,375.413,885.687,374.853Z" transform="translate(-884.973 -364.035)" fill="#0fa6d1"/>
      <g id="Group_91" data-name="Group 91" transform="translate(1.629 0.809)">
        <line id="Line_28" data-name="Line 28" x1="0.461" y2="22.887" transform="translate(0 10.027)" fill="none" stroke="#16537f" stroke-miterlimit="10" stroke-width="1"/>
        <line id="Line_29" data-name="Line 29" y2="23.481" transform="translate(2.65 10.027)" fill="none" stroke="#16537f" stroke-miterlimit="10" stroke-width="1"/>
        <line id="Line_30" data-name="Line 30" x2="0.761" y2="23.887" transform="translate(4.431 9.809)" fill="none" stroke="#16537f" stroke-miterlimit="10" stroke-width="1"/>
        <line id="Line_31" data-name="Line 31" x2="0.733" y2="24.23" transform="translate(6.933 9.429)" fill="none" stroke="#16537f" stroke-miterlimit="10" stroke-width="1"/>
        <line id="Line_32" data-name="Line 32" x2="1.008" y2="24.494" transform="translate(8.941 8.968)" fill="none" stroke="#16537f" stroke-miterlimit="10" stroke-width="1"/>
        <line id="Line_33" data-name="Line 33" x2="1.207" y2="24.731" transform="translate(10.661 8.446)" fill="none" stroke="#16537f" stroke-miterlimit="10" stroke-width="1"/>
        <line id="Line_34" data-name="Line 34" x2="1.507" y2="25.004" transform="translate(12.589 7.699)" fill="none" stroke="#16537f" stroke-miterlimit="10" stroke-width="1"/>
        <line id="Line_35" data-name="Line 35" x2="1.425" y2="25.463" transform="translate(14.688 6.658)" fill="none" stroke="#16537f" stroke-miterlimit="10" stroke-width="1"/>
        <line id="Line_36" data-name="Line 36" x2="1.612" y2="25.815" transform="translate(16.383 5.607)" fill="none" stroke="#16537f" stroke-miterlimit="10" stroke-width="1"/>
        <line id="Line_37" data-name="Line 37" x2="1.793" y2="26.193" transform="translate(17.995 4.386)" fill="none" stroke="#16537f" stroke-miterlimit="10" stroke-width="1"/>
        <path id="Path_193" data-name="Path 193" d="M1013.989,367.975s5.223,13.848,2.682,26.867" transform="translate(-992.136 -367.975)" fill="none" stroke="#16537f" stroke-miterlimit="10" stroke-width="1"/>
        <path id="Path_194" data-name="Path 194" d="M997.719,387.71s2.545,16.151,2.443,26.076" transform="translate(-978.828 -384.118)" fill="none" stroke="#16537f" stroke-miterlimit="10" stroke-width="1"/>
        <path id="Path_195" data-name="Path 195" d="M1006.133,378.826a90.226,90.226,0,0,1,2.576,26.444" transform="translate(-985.71 -376.851)" fill="none" stroke="#16537f" stroke-miterlimit="10" stroke-width="1"/>
      </g>
      <g id="Group_92" data-name="Group 92" transform="translate(6.822 4.536)">
        <path id="Path_196" data-name="Path 196" d="M930.883,406.632a6.7,6.7,0,0,1-3.736-1.079c-4.215-2.748-4.675-9.725-4.693-10.021a.647.647,0,0,1,1.293-.077c0,.066.442,6.627,4.11,9.015,1.65,1.075,3.76,1.146,6.27.212A6.963,6.963,0,0,0,938.4,400.9c1.135-2.715.583-6.594-1.638-11.531a.648.648,0,0,1,1.181-.532c2.375,5.277,2.931,9.5,1.652,12.562a8.2,8.2,0,0,1-5.012,4.5A10.648,10.648,0,0,1,930.883,406.632Z" transform="translate(-922.453 -388.451)" fill="#134863"/>
      </g>
      <path id="Path_197" data-name="Path 197" d="M924.553,426.016a.318.318,0,1,1-.318-.318A.318.318,0,0,1,924.553,426.016Z" transform="translate(-916.83 -414.382)" fill="#0fa6d1"/>
      <path id="Path_198" data-name="Path 198" d="M1003.279,391.027a.318.318,0,1,1-.318-.318A.317.317,0,0,1,1003.279,391.027Z" transform="translate(-981.227 -385.762)" fill="#0fa6d1"/>
    </g>
    <path id="Path_199" data-name="Path 199" d="M260.018,529.967c0,1.278-2.043,2.315-4.563,2.315s-4.564-1.036-4.564-2.315,2.043-2.315,4.564-2.315S260.018,528.689,260.018,529.967Z" transform="translate(-117.725 -370.598)" fill="#6faf5a"/>
    <path id="Path_200" data-name="Path 200" d="M369.715,581.777c0,.445-1.1.805-2.457.805s-2.457-.36-2.457-.805,1.1-.805,2.457-.805S369.715,581.332,369.715,581.777Z" transform="translate(-210.902 -414.214)" fill="#6faf5a"/>
    <ellipse id="Ellipse_1" data-name="Ellipse 1" cx="6.692" cy="3.378" rx="6.692" ry="3.378" transform="translate(258.158 207.737)" fill="#6faf5a"/>
    <path id="Path_201" data-name="Path 201" d="M272.06,408.938c0,1.021-1.34,1.849-2.992,1.849s-2.992-.828-2.992-1.849,1.34-1.849,2.992-1.849S272.06,407.917,272.06,408.938Z" transform="translate(-130.146 -271.979)" fill="#6faf5a"/>
    <path id="Path_202" data-name="Path 202" d="M279.267,678.878c0,2.024-4.226,3.664-9.44,3.664s-9.44-1.64-9.44-3.664,4.226-3.665,9.44-3.665S279.267,676.854,279.267,678.878Z" transform="translate(-125.493 -491.302)" fill="#fcfefb"/>
  </g>
</svg>
