<svg xmlns="http://www.w3.org/2000/svg" width="20" height="20" viewBox="0 0 20 20">
  <g id="Group_114" data-name="Group 114" transform="translate(6.647 -1472.451)">
    <rect id="Rectangle_21" data-name="Rectangle 21" width="20" height="20" transform="translate(-6.647 1472.451)" fill="none"/>
    <g id="Group_109" data-name="Group 109" transform="translate(-4.431 1472.62)">
      <path id="Path_204" data-name="Path 204" d="M-436.354,417.771h-11.634a.174.174,0,0,0-.05-.026,2.307,2.307,0,0,1-1.926-2.362c.022-4.352.008-8.7.01-13.055a2.735,2.735,0,0,1,.03-.5,2.248,2.248,0,0,1,2.262-1.877h.78c0-.369-.007-.713,0-1.057a.8.8,0,0,1,.562-.746.808.808,0,0,1,1.061.736c.013.349,0,.7,0,1.056H-443c0-.348,0-.686,0-1.023a.813.813,0,0,1,.563-.768.822.822,0,0,1,1.075.807c.008.325,0,.65,0,.983h2.246c0-.255,0-.5,0-.739a2.775,2.775,0,0,1,.018-.4.808.808,0,0,1,.857-.688.814.814,0,0,1,.763.794c.009.343,0,.687,0,1.047.288,0,.555,0,.823,0A2.248,2.248,0,0,1-434.4,402.2q.006,6.662,0,13.324a2.239,2.239,0,0,1-1.7,2.173C-436.185,417.721-436.27,417.747-436.354,417.771Zm-5.393-9.83H-445.8a.823.823,0,0,0-.887.807.827.827,0,0,0,.883.834c.339,0,.678,0,1.017,0q3.5,0,7,0a.877.877,0,0,0,.709-.273.776.776,0,0,0,.145-.874.787.787,0,0,0-.774-.5Q-439.723,407.94-441.747,407.941Zm-.042,4.915q2.034,0,4.068,0a.82.82,0,0,0,.867-.808.815.815,0,0,0-.845-.831q-4.068-.007-8.135,0a.824.824,0,0,0-.62.256.8.8,0,0,0-.158.889.793.793,0,0,0,.775.495Q-443.813,412.858-441.789,412.856Zm-2.013-8.186v0c-.652,0-1.3,0-1.957,0a1.358,1.358,0,0,0-.3.023.82.82,0,0,0-.615.879.8.8,0,0,0,.767.724c1.4.008,2.8,0,4.2,0a.636.636,0,0,0,.187-.034.811.811,0,0,0,.562-.912.794.794,0,0,0-.769-.677C-442.421,404.664-443.112,404.67-443.8,404.67Z" transform="translate(449.965 -398.111)" fill="#fff"/>
    </g>
  </g>
</svg>
