<svg xmlns="http://www.w3.org/2000/svg" width="220" height="42" viewBox="0 0 220 42">
  <g id="Group_6" data-name="Group 6" transform="translate(-39.606 -22.954)">
    <rect id="Rectangle_1" data-name="Rectangle 1" width="220" height="42" transform="translate(39.606 22.954)" fill="none"/>
    <g id="Group_5" data-name="Group 5" transform="translate(-296 -408)">
      <g id="Group_1" data-name="Group 1" transform="translate(336 432)">
        <path id="Path_1" data-name="Path 1" d="M413.913,498.7a1.122,1.122,0,0,0,.709-1.419,1.154,1.154,0,0,0-1.285-.937c-.721-.009-1.441,0-2.384,0a33.381,33.381,0,0,0-3.583.153,2.2,2.2,0,0,0-1.424.506,1.335,1.335,0,0,0-.439,1.392c.129.5.485.858.924.814.962-.1.752.487.7,1a39.634,39.634,0,0,0-.071,6.373c.06.931-.045,1.232-.979,1.288-1.067.065-1.6.657-1.452,1.442.186.968.891,1.1,1.722,1,1.158-.134,2.319-.243,3.475-.392.628-.081.925.064.922.784a17.521,17.521,0,0,0,.218,2.663,1.138,1.138,0,0,0,1.347,1.1,1.169,1.169,0,0,0,1.048-1.393c-.048-.891-.1-1.782-.174-2.672-.038-.451-.014-.776.559-.882a1.1,1.1,0,0,0,.857-1.142,1.028,1.028,0,0,0-.812-1.161c-.655-.119-.667-.492-.63-1.01a57.853,57.853,0,0,0,.217-6.686A.692.692,0,0,1,413.913,498.7Zm-3.838,8.735c-.8.017-.487-.648-.578-1.032-.114-.466.05-.745.618-.783.831-.055.444.55.514.765C410.757,507,410.7,507.419,410.075,507.435Zm.014-4.247c-.241.031-.5.046-.514-.31-.021-.439.3-.471.611-.5.289-.026.547.015.581.344C410.741,503.227,410.373,503.15,410.089,503.187Zm.194-3.287c-.439.052-.647-.022-.616-.471.036-.519.322-.568.745-.585.54-.022.49.327.507.662C410.949,500.11,410.481,499.847,410.284,499.9Z" transform="translate(-392.805 -485.26)" fill="#06919d"/>
        <path id="Path_2" data-name="Path 2" d="M464.663,498.645a6.243,6.243,0,0,0-6.243,6.243c0,3.447,6.243,10.541,6.243,10.541s6.243-7.094,6.243-10.541A6.243,6.243,0,0,0,464.663,498.645Zm0,9.726a3.484,3.484,0,1,1,3.484-3.484A3.484,3.484,0,0,1,464.663,508.371Z" transform="translate(-437.361 -487.181)" fill="#ff7b38"/>
        <path id="Path_3" data-name="Path 3" d="M355.954,432a19.946,19.946,0,0,0-17.66,29.235c.224.427.464.846.721,1.254A19.951,19.951,0,1,0,355.954,432Zm0,37.844a17.9,17.9,0,0,1-15.072-8.259,4.027,4.027,0,0,0,.39-.9c.208-.709.428-.882,1.153-.5,1.362.714,2.768,1.355,4.194,1.933,4.084,1.655,8.188,3.153,12.752,2.42,2.188-.351,4.347-.654,6.083-2.2a2.981,2.981,0,0,0,.848-1.015,1.15,1.15,0,0,0-.322-1.39c-.432-.43-.783-.165-1.156.129-2.6,2.056-5.708,2.336-8.8,2.111a29.825,29.825,0,0,1-9.516-2.825c-.32-.138-.609-.261-.616-.709-.015-1.065-.083-2.128-.112-3.191-.015-.537.122-.876.809-.86a9.561,9.561,0,0,0,2.035-.261,1.1,1.1,0,0,0,.963-1.342,1.116,1.116,0,0,0-1.306-1.017c-.618.021-1.233.079-1.849.119-.332.022-.554,0-.618-.454-.332-2.355-.347-2.372,2.006-2.262.874.04,1.507-.208,1.677-1.12.136-.736-.53-1.359-1.536-1.436-.649-.05-1.306-.005-1.958-.016-.225,0-.449.034-.528-.32-.215-.972.182-1.54,1.185-1.614a3.3,3.3,0,0,0,.609-.1,1.286,1.286,0,0,0,1.039-1.443,1.092,1.092,0,0,0-1.378-1.032c-.989.139-1.536-.024-1.355-1.233a1.284,1.284,0,1,0-2.539-.077c.064,1.115-.157,1.679-1.412,1.631-.719-.029-1.1.58-1.067,1.264a1.141,1.141,0,0,0,1.118,1.141,3.262,3.262,0,0,0,.719.033c.667-.084.671.361.566.767-.11.425.442,1.187-.588,1.2a11.819,11.819,0,0,0-2.044.213,1.186,1.186,0,0,0-1.082,1.469c.136.791.714,1.022,1.452.955.616-.055,1.232-.108,1.846-.172.4-.04.661.04.659.523-.009,2.491-.005,4.983-.005,7.491-.779-.1-1.06-.442-.92-1.237a17.5,17.5,0,0,0,.132-2.465,1.035,1.035,0,0,0-.458-.972c-.846-.564-1.593-.206-1.815.893-.32,1.589-.446,3.224-.831,4.8a17.891,17.891,0,1,1,16.646,11.331Z" transform="translate(-336 -432)" fill="#06919d"/>
      </g>
      <g id="Group_3" data-name="Group 3" transform="translate(388.011 437.998)">
        <path id="Path_4" data-name="Path 4" d="M662.422,470.309q-.558-1.024-1.117-1.985t-1.148-1.923q-2.884.528-5.4.93t-4.978.744q-2.466.342-5.133.62t-5.8.558l-.5-4.063q1.272,0,2.435-.016t2.218-.015a51.74,51.74,0,0,0,3.1-4.358q1.365-2.155,2.729-4.792l4.4,1.985q-1.954,2.233-3.644,3.892t-3.582,3.21q2.263-.062,4.311-.124t4.156-.155q2.109-.093,4.5-.217-1.272-1.923-3.039-4.187l1.706-1.427q2.605,2.2,4.59,4.218t3.784,4.187Zm-3.381,13.615v-1.489h-14.2v1.179l-3.443.31-.558-13.46h4v1.023l18.144-1.023-.558,13.15Zm0-9.708h-14.2v5.769l14.2-.962Z" transform="translate(-638.354 -456.011)" fill="#06919d"/>
        <path id="Path_5" data-name="Path 5" d="M835.669,480.947q.93-1.861,1.644-3.691t1.21-3.319q.5-1.489,1.023-3.288l1.985.744q-.217,1.83-.45,3.4t-.6,3.582q-.372,2.016-.869,4.218Zm5.707-20.749a2.64,2.64,0,0,1-.806,1.907,2.73,2.73,0,1,1,0-3.815A2.642,2.642,0,0,1,841.376,460.2Zm.062,6.2a2.3,2.3,0,0,1-.729,1.706,2.378,2.378,0,0,1-1.721.713,2.419,2.419,0,0,1,0-4.838,2.38,2.38,0,0,1,1.721.713A2.306,2.306,0,0,1,841.438,466.4Zm16.593,3.815V467.61q-.217.372-.6.931t-.915,1.178l-.961-.558a24.935,24.935,0,0,0,.62-2.915l1.861.651v-1.21q-.9.217-2.078.465l-.372-2.7,1.241.062q.868-.93,1.613-1.8-.59-.372-1.333-.791a11.632,11.632,0,0,0-1.458-.7v.527H849.1l-.186-.682q-.31.31-1.287,1.318a29.789,29.789,0,0,1-2.4,2.187q.434,0,.868-.016t.869-.015a4.658,4.658,0,0,0-.093-.543q-.063-.263-.124-.512l.961-.434q.4.683.76,1.4t.791,1.675l-1.985,1.054q-.062-.837-.155-1.427l-.372.124q0,.435-.031,1.008t-.093,1.442a1.339,1.339,0,0,1,1.272-.775,1.43,1.43,0,0,1,1.458,1.458,1.425,1.425,0,0,1-.419,1.023,1.384,1.384,0,0,1-1.039.434,1.474,1.474,0,0,1-.837-.248,1.349,1.349,0,0,1-.527-.651l-.093,1.892-2.388.434v-2.884q-.279.465-.636,1.07a8.877,8.877,0,0,1-.791,1.132l-.993-.5a13.689,13.689,0,0,0,.295-2.047q.047-.868.047-1.116v-.093l2.078.527v-1.333q-.9.217-2.109.5l-.434-2.7q.992.062,1.768.093.279-.341.558-.7t.527-.7q-.59-.279-1.287-.62a12.842,12.842,0,0,0-1.411-.589l1.272-2.822a4.423,4.423,0,0,1,.62.62q.155-.248.5-.977a9.382,9.382,0,0,0,.589-1.752l1.892,1.613a10.648,10.648,0,0,1-1.132,1.473q-.543.574-.791.791l.713.869q.775-1.179,1.675-2.729l1.83,1.706-.155-.62,6.978-.527v1.364l1.3-2.388a4.88,4.88,0,0,1,.4.388q.186.2.372.45a7.794,7.794,0,0,0,.465-.993,13.784,13.784,0,0,0,.465-1.4l2.016,1.613a14.984,14.984,0,0,1-1.039,1.256q-.481.512-.791.791l.589.744q.744-.992,1.613-2.3l1.985,1.923q-1.086,1.055-2.032,1.861t-2.124,1.675h1.07q.542,0,1.1-.031a3.545,3.545,0,0,0-.109-.589q-.078-.279-.139-.558l.993-.465q.465.714.884,1.458t.915,1.737l-2.171.961q-.093-.744-.155-1.334l-.558.186-.186,2.264a1.414,1.414,0,0,1,1.272-.682,1.489,1.489,0,1,1,0,2.977,1.472,1.472,0,0,1-.837-.248,1.349,1.349,0,0,1-.527-.651l-.093,1.178ZM851.952,482.9v-1.613l5.583-.5.155-.93H846.307l-.527,1.768-3.009-.341,1.427-7.475h3.753l-.248.869,9.211-.589v-1.023h-14.36l-.5-1.768,18.516-.992-.434,6.234H847.331l-.434,1.427,14.763-.837-.869,6.7Zm-2.357-20-.434-1.365,6.11-.5V462.9Zm0,2.109-.434-1.365,6.11-.465v1.83Zm.031-6.7-.434-1.458,5.924-.5v1.954Zm0,11.506-.341-4.373H851.7v.434l3.784-.434-.372,4.373Zm3.38-2.45h-1.3v1.116l1.3-.186Z" transform="translate(-801.727 -456.011)" fill="#06919d"/>
        <path id="Path_6" data-name="Path 6" d="M1242.007,482.963l-.62-2.574,7.444-.465v-2.667h-5.738l-.62-2.512,6.358-.4V471.7h-5.645l-.093-2.233q-.465.558-.992,1.1a12.986,12.986,0,0,1-1.055.977q.465.342.977.7t1.008.7l-1.861,2.729q-.651-.837-1.271-1.737t-1.117-1.675l-.434,11.259-3.039.372V473.472q-.59.621-1.21,1.209t-1.241,1.148l-1.116-1.365a52.857,52.857,0,0,0,3.21-4.683,50.3,50.3,0,0,0,2.528-4.652h-4.931l-.62-2.729,8.25-.992,2.016,2.946q-.714,1.241-1.551,2.466t-1.737,2.4l-.031.62.806.651a26.085,26.085,0,0,0,1.054-3.039l2.326,1.4-.4-11.631h3.536v.961l12.5-.961-.527,14.484h-6.079l-.031,2.419,6.916-.465v3.6h-7.01l-.062,2.481,7.754-.465v3.722Zm-2.481-24.44a2.39,2.39,0,0,1-.729,1.753,2.426,2.426,0,0,1-1.783.729,2.488,2.488,0,0,1-2.481-2.481,2.426,2.426,0,0,1,.729-1.783,2.39,2.39,0,0,1,1.752-.729,2.489,2.489,0,0,1,2.512,2.512Zm9.3,2.326h-2.636v2.977l2.636-.31Zm0,5.241h-2.636v2.978l2.636-.217Zm6.327,0h-2.915l-.062,2.481,2.977-.248Zm0-5.241h-2.791l-.062,2.264,2.853-.341Z" transform="translate(-1129.667 -456.011)" fill="#06919d"/>
        <path id="Path_7" data-name="Path 7" d="M1444.356,482.963a17.894,17.894,0,0,1-6.606-1.085,13.889,13.889,0,0,1-4.962-3.443q-.31,1.458-.636,2.807t-.729,2.652l-1.737-.465q.434-3.132.7-6.343t.357-6.9l3.195.589q-.124,1.427-.31,2.776t-.4,2.621a14.345,14.345,0,0,0,1.241.993V468.7h-3.97l-.62-2.264,4.59-.558V462.4h-3.319l-.62-2.264,3.939-.558v-3.567l3.629.31-.093,2.76,2.016-.279v3.6H1437.9l-.093,3.071,2.978-.372v3.6h-3.071l-.093,2.481a1.92,1.92,0,0,1,1.489-.651,2.011,2.011,0,0,1,2.016,2.016,1.894,1.894,0,0,1-.589,1.411,2.051,2.051,0,0,1-2.977-.139l-.155,4.993a13.371,13.371,0,0,0,2.605.667,19.287,19.287,0,0,0,2.884.2c.186,0,.372,0,.558-.016s.382-.015.589-.015l13.553-.372-.962,3.691Zm1.706-3.784V475.8q-.9.465-2.156,1.055t-2.683,1.21l-1.055-3.567,1.4-.155-.434-14.019h-.744l-.434-2.7,15.383-.9v3.6h-6.079l-.5,18.547Zm0-18.857h-1.675v2.357l1.675-.31Zm0,5.21h-1.675v2.3l1.675-.31Zm0,5.149h-1.675v3.287l1.675-.248Zm8.746,8.281q-.465-.806-.93-1.814t-.807-1.876q-.59,1.023-1.241,2t-1.3,1.814l-1.52-1.116q.775-1.364,1.5-2.9t1.287-2.962q-.59-1.489-1.163-3.257t-1.07-3.722l1.706-.62q.4,1.21.837,2.342t.837,2.032q.279-1.21.465-2.419t.31-2.388h-3.5l-.465-2.481,5.117-.9,2.481,1.768a43.282,43.282,0,0,1-1.07,5.086,34.209,34.209,0,0,1-1.535,4.342,22.446,22.446,0,0,0,1.334,2.3q.775,1.179,1.551,2.2Z" transform="matrix(0.966, 0.259, -0.259, 0.966, -1122.737, -813.644)" fill="#ff7b38"/>
        <g id="Group_2" data-name="Group 2" transform="translate(68.04 0.325)">
          <path id="Path_8" data-name="Path 8" d="M1041.178,462.735v20.717h-4.2v2.423h-3.085v-23.14Zm-4.2,17.6h1.175V465.915h-1.175Z" transform="translate(-1033.892 -461.904)" fill="#06919d"/>
          <path id="Path_9" data-name="Path 9" d="M1074.548,483.3l-.028-1.83,3.527-.651v-5.087h-2.7a31.781,31.781,0,0,1-1.6,4.807,29.693,29.693,0,0,1-2.458,4.59l-1.611-1.209a40.911,40.911,0,0,0,1.652-4.2,33.859,33.859,0,0,0,1.041-3.986h-.825l-.555-2.574,1.825-.279q.25-2.109.333-4.373h-1.6l-.555-2.574,2.214-.341.083-3.815h-1.631l-.555-2.729,10.385-1.148-.528,27.169Zm3.5-14.794h-1.674a40,40,0,0,1-.417,4.032l2.09-.31Zm0-6.73h-1.507l-.056,3.474,1.562-.248Zm8.035,18.082V477.97l1.4-.62a3.979,3.979,0,0,0,.25-1.489,9.915,9.915,0,0,0-.569-2.962,24.948,24.948,0,0,0-1.9-4.171l1.944-6.575h-1.737v22.331l-2.833.62-.555-26.983h3.388v1.023l3.986-1.023,1.722,3.381-3.249,7.072a22.832,22.832,0,0,1,2.458,4.451,11.837,11.837,0,0,1,.986,4.544,7.188,7.188,0,0,1-.305,2.093,5.268,5.268,0,0,1-1,1.845Z" transform="translate(-1063.525 -457.903)" fill="#06919d"/>
        </g>
      </g>
    </g>
  </g>
</svg>
