<svg xmlns="http://www.w3.org/2000/svg" width="42" height="42" viewBox="0 0 42 42">
  <g id="Group_204" data-name="Group 204" transform="translate(-1157 -165)">
    <path id="Path_210" data-name="Path 210" d="M21,0A21,21,0,1,1,0,21,21,21,0,0,1,21,0Z" transform="translate(1157 165)" fill="#e1e1e1"/>
    <g id="Group_136" data-name="Group 136" transform="translate(1168.257 174.257)">
      <rect id="Rectangle_20" data-name="Rectangle 20" width="24" height="24" transform="translate(-0.257 -0.257)" fill="none"/>
      <g id="Group_111" data-name="Group 111" transform="translate(0.931 0.059)">
        <g id="Group_110" data-name="Group 110" transform="translate(0)">
          <path id="Path_205" data-name="Path 205" d="M-27.868,413.569q4.1,0,8.193,0a5.6,5.6,0,0,1,4.276-1.983,5.588,5.588,0,0,1,1.027.095q0-4.371,0-8.744a2.652,2.652,0,0,0-2.652-2.652c-.315,0-.631,0-.971,0,0-.425.008-.83,0-1.236a.961.961,0,0,0-.9-.937.953.953,0,0,0-1.01.812,3.251,3.251,0,0,0-.022.474c0,.286,0,.572,0,.872h-2.65c0-.393.008-.777,0-1.16a.97.97,0,0,0-1.269-.952.959.959,0,0,0-.664.906c-.007.4,0,.8,0,1.207h-2.665c0-.42.013-.833,0-1.246a.953.953,0,0,0-1.251-.868.942.942,0,0,0-.663.881c-.01.406,0,.812,0,1.247h-.92a2.653,2.653,0,0,0-2.67,2.214,3.219,3.219,0,0,0-.036.586c0,5.134.015,10.268-.011,15.4a2.721,2.721,0,0,0,2.272,2.786.215.215,0,0,1,.06.03h11.2a5.592,5.592,0,0,1-1.8-4.111,5.565,5.565,0,0,1,.26-1.687H-23.1q-2.388,0-4.776,0a.936.936,0,0,1-.914-.583.942.942,0,0,1,.186-1.049A.972.972,0,0,1-27.868,413.569Zm-.271-7.7a1.616,1.616,0,0,1,.359-.027q1.154,0,2.308,0v0c.815,0,1.63-.008,2.444,0a.937.937,0,0,1,.907.8.958.958,0,0,1-.663,1.076.765.765,0,0,1-.22.04c-1.653,0-3.3.008-4.957,0a.94.94,0,0,1-.9-.853A.967.967,0,0,1-28.139,405.872Zm.316,3.834h4.776q2.388,0,4.776,0a.929.929,0,0,1,.913.584.916.916,0,0,1-.172,1.031,1.035,1.035,0,0,1-.837.321q-4.131,0-8.262,0c-.4,0-.8,0-1.2,0a.975.975,0,0,1-1.041-.983A.971.971,0,0,1-27.822,409.706Z" transform="translate(32.741 -398.108)" fill="#fff"/>
        </g>
        <path id="Path_206" data-name="Path 206" d="M188.653,643.246a4.284,4.284,0,1,0,3.359,4.183A4.283,4.283,0,0,0,188.653,643.246Zm.73,4.83h-1.008v1.008a.646.646,0,0,1-1.293,0v-1.008h-1.008a.646.646,0,0,1,0-1.293h1.008v-1.008a.646.646,0,0,1,1.293,0v1.008h1.008a.646.646,0,0,1,0,1.293Z" transform="translate(-170.388 -628.346)" fill="#fff"/>
      </g>
    </g>
  </g>
</svg>
